# xmcd
# Copyright (C) 1995-1998 Ti Kan
#
# Track frame offsets:
#       180
#       15403
#       29855
#       42737
#       52643
#       73714
#       88073
#       100937
#       112110
#       127416
#       142347
#       154997
#       177550
#       179288
#
# Disc length: 2570 seconds
#
# Revision: 0
# Processed by: cddbd v1.5.2PL0 Copyright (c) Steve Scherf et al.
# Submitted via: CD-Import v1.0
#
DISCID=d70a080e
DTITLE=Ear - Speaker
DYEAR=1996
DGENRE=
TTITLE0=I Is Another
TTITLE1=Frame 
TTITLE2=Material Girl
TTITLE3=Surprising Condition
TTITLE4=Red Tape
TTITLE5=The Woman In The Catalogue
TTITLE6=Tumbler
TTITLE7=Die Right Now
TTITLE8=The Book And The Birds
TTITLE9=Tidal Wave
TTITLE10=Aeroplane
TTITLE11=Social Worker
TTITLE12=Material Girl Remix
TTITLE13=Salvation Song
EXTD=
EXTT0=
EXTT1=
EXTT2=
EXTT3=
EXTT4=
EXTT5=
EXTT6=
EXTT7=
EXTT8=
EXTT9=
EXTT10=
EXTT11=
EXTT12=
EXTT13=
PLAYORDER=
